# xmcd
#
# Track frame offsets:
#	150
#	16218
#	29240
#	48104
#	56304
#	72088
#	85045
#	97807
#	108961
#	123757
#	141566
#	152886
#	167035
#	181812
#	197127
#	207786
#	222937
#	237873
#	250905
#	265066
#	282943
#	294645
#	309685
#	326128
#	341288
#
# Disc length: 4784 seconds
#
# Revision: 0
# Processed by: cddbd v1.5.2PL0 Copyright (c) Steve Scherf et al.
# Submitted via: dBpowerAMP V4.0
#
DISCID=6712ae19
DTITLE=Vários - Baile de Verão
DYEAR=2007
DGENRE=Country
TTITLE0=A Bela Portuguesa
TTITLE1=O Baile De Verão
TTITLE2=Bacalhau À Portuguesa
TTITLE3=As Meninas da Ribeira do Sado
TTITLE4=Pelos Caminhos de Portugal
TTITLE5=Rapaziada Vamos Dançar
TTITLE6=Eu Tenho Dois Amores
TTITLE7=Zumba Zumba Tric-Tric
TTITLE8=Mulher Gorda
TTITLE9=Eu Vou A Todas
TTITLE10=Que Bela Vida
TTITLE11=O Burrito
TTITLE12=O Bacalhau Quer Alho
TTITLE13=Dá Cá, Dá Cá, Dá Cá
TTITLE14=Levo-te P'ra Casa
TTITLE15=Garagem da Vizinha
TTITLE16=Apita O Comboio
TTITLE17=Pimba, Pimba
TTITLE18=Portugal, Minha Saudade
TTITLE19=Namorada Portuguesa
TTITLE20=Teresa Portuguesa
TTITLE21=Bilhete Postal
TTITLE22=Era Pouco E Acabou
TTITLE23=Mexe Mexe Que Eu Gosto
TTITLE24=Romaria de Portugal
EXTD=
EXTT0=
EXTT1=
EXTT2=
EXTT3=
EXTT4=
EXTT5=
EXTT6=
EXTT7=
EXTT8=
EXTT9=
EXTT10=
EXTT11=
EXTT12=
EXTT13=
EXTT14=
EXTT15=
EXTT16=
EXTT17=
EXTT18=
EXTT19=
EXTT20=
EXTT21=
EXTT22=
EXTT23=
EXTT24=
PLAYORDER=
